# xmcd
#
# Track frame offsets:
# 150
# 20445
# 30683
# 45689
# 63820
# 75737
# 93811
# 123865
# 138213
# 157948
# 171488
# 184319
# 199578
# 213996
# 237573
#
# Disc length: 3370 seconds
#
#
# Revision: 0
# Processed by: cddbd v1.5.2PL0 Copyright (c) Steve Scherf et al.
# Submitted via: Nero 7, 11, 10, 0 
#
DISCID=c20d280f
DTITLE=Stringbean and The Stalkers - Ride Of Your Life
DYEAR=2007
DGENRE=Blues
TTITLE0=Ride Of Your Life
TTITLE1=Spread Too Thin
TTITLE2=See Me Laughin'
TTITLE3=Pepper Shack
TTITLE4=Fade Away
TTITLE5=Hurtin
TTITLE6=Heidi
TTITLE7=Toll Runner
TTITLE8=Test Drive
TTITLE9=Cream Soda
TTITLE10=Even Though
TTITLE11=Jonah's Big Mistake
TTITLE12=Hard Life
TTITLE13=Introducing "The String-Bean Crew"
TTITLE14=Form Other
EXTD=
EXTT0=Ride Of Your Life
EXTT1=Spread Too Thin
EXTT2=See Me Laughin'
EXTT3=Pepper Shack
EXTT4=Fade Away
EXTT5=Hurtin
EXTT6=Heidi
EXTT7=Toll Runner
EXTT8=Test Drive
EXTT9=Cream Soda
EXTT10=Even Though
EXTT11=Jonah's Big Mistake
EXTT12=Hard Life
EXTT13=Introducing "The String-Bean Crew"
EXTT14=Form Other
PLAYORDER=
